name C:\Users\u0101727\Documents\MyRepositories\upper-imu-dc\OpenSim\subject0\MA\MA_Splines\angle_in_n6_dof6_2.mot
datacolumns 7
datarows 54
range 275.01000000 275.54000000
endheader 
time	clav_prot	clav_elev	scapula_abduction	scapula_elevation	scapula_upward_rot	scapula_winging	
        275.01000000	        -33.36984042	         16.86370047	        -22.45226073	         -4.83889401	         54.58874201	         -0.91704303	
        275.02000000	        -27.88187210	         16.86370047	        -22.45226073	         -4.83889401	         54.58874201	         -0.91704303	
        275.03000000	        -22.39390379	         16.86370047	        -22.45226073	         -4.83889401	         54.58874201	         -0.91704303	
        275.04000000	        -16.90593547	         16.86370047	        -22.45226073	         -4.83889401	         54.58874201	         -0.91704303	
        275.05000000	        -44.34577705	         -7.65248351	        -14.01721834	         -4.83889401	         54.58874201	         -0.91704303	
        275.06000000	        -38.85780873	         -7.65248351	        -14.01721834	         -4.83889401	         54.58874201	         -0.91704303	
        275.07000000	        -33.36984042	         -7.65248351	        -14.01721834	         -4.83889401	         54.58874201	         -0.91704303	
        275.08000000	        -27.88187210	         -7.65248351	        -14.01721834	         -4.83889401	         54.58874201	         -0.91704303	
        275.09000000	        -22.39390379	         -7.65248351	        -14.01721834	         -4.83889401	         54.58874201	         -0.91704303	
        275.10000000	        -16.90593547	         -7.65248351	        -14.01721834	         -4.83889401	         54.58874201	         -0.91704303	
        275.11000000	        -44.34577705	         -2.74924671	        -14.01721834	         -4.83889401	         54.58874201	         -0.91704303	
        275.12000000	        -38.85780873	         -2.74924671	        -14.01721834	         -4.83889401	         54.58874201	         -0.91704303	
        275.13000000	        -33.36984042	         -2.74924671	        -14.01721834	         -4.83889401	         54.58874201	         -0.91704303	
        275.14000000	        -27.88187210	         -2.74924671	        -14.01721834	         -4.83889401	         54.58874201	         -0.91704303	
        275.15000000	        -22.39390379	         -2.74924671	        -14.01721834	         -4.83889401	         54.58874201	         -0.91704303	
        275.16000000	        -16.90593547	         -2.74924671	        -14.01721834	         -4.83889401	         54.58874201	         -0.91704303	
        275.17000000	        -44.34577705	          2.15399008	        -14.01721834	         -4.83889401	         54.58874201	         -0.91704303	
        275.18000000	        -38.85780873	          2.15399008	        -14.01721834	         -4.83889401	         54.58874201	         -0.91704303	
        275.19000000	        -33.36984042	          2.15399008	        -14.01721834	         -4.83889401	         54.58874201	         -0.91704303	
        275.20000000	        -27.88187210	          2.15399008	        -14.01721834	         -4.83889401	         54.58874201	         -0.91704303	
        275.21000000	        -22.39390379	          2.15399008	        -14.01721834	         -4.83889401	         54.58874201	         -0.91704303	
        275.22000000	        -16.90593547	          2.15399008	        -14.01721834	         -4.83889401	         54.58874201	         -0.91704303	
        275.23000000	        -44.34577705	          7.05722688	        -14.01721834	         -4.83889401	         54.58874201	         -0.91704303	
        275.24000000	        -38.85780873	          7.05722688	        -14.01721834	         -4.83889401	         54.58874201	         -0.91704303	
        275.25000000	        -33.36984042	          7.05722688	        -14.01721834	         -4.83889401	         54.58874201	         -0.91704303	
        275.26000000	        -27.88187210	          7.05722688	        -14.01721834	         -4.83889401	         54.58874201	         -0.91704303	
        275.27000000	        -22.39390379	          7.05722688	        -14.01721834	         -4.83889401	         54.58874201	         -0.91704303	
        275.28000000	        -16.90593547	          7.05722688	        -14.01721834	         -4.83889401	         54.58874201	         -0.91704303	
        275.29000000	        -44.34577705	         11.96046367	        -14.01721834	         -4.83889401	         54.58874201	         -0.91704303	
        275.30000000	        -38.85780873	         11.96046367	        -14.01721834	         -4.83889401	         54.58874201	         -0.91704303	
        275.31000000	        -33.36984042	         11.96046367	        -14.01721834	         -4.83889401	         54.58874201	         -0.91704303	
        275.32000000	        -27.88187210	         11.96046367	        -14.01721834	         -4.83889401	         54.58874201	         -0.91704303	
        275.33000000	        -22.39390379	         11.96046367	        -14.01721834	         -4.83889401	         54.58874201	         -0.91704303	
        275.34000000	        -16.90593547	         11.96046367	        -14.01721834	         -4.83889401	         54.58874201	         -0.91704303	
        275.35000000	        -44.34577705	         16.86370047	        -14.01721834	         -4.83889401	         54.58874201	         -0.91704303	
        275.36000000	        -38.85780873	         16.86370047	        -14.01721834	         -4.83889401	         54.58874201	         -0.91704303	
        275.37000000	        -33.36984042	         16.86370047	        -14.01721834	         -4.83889401	         54.58874201	         -0.91704303	
        275.38000000	        -27.88187210	         16.86370047	        -14.01721834	         -4.83889401	         54.58874201	         -0.91704303	
        275.39000000	        -22.39390379	         16.86370047	        -14.01721834	         -4.83889401	         54.58874201	         -0.91704303	
        275.40000000	        -16.90593547	         16.86370047	        -14.01721834	         -4.83889401	         54.58874201	         -0.91704303	
        275.41000000	        -44.34577705	         -7.65248351	         -5.58217594	         -4.83889401	         54.58874201	         -0.91704303	
        275.42000000	        -38.85780873	         -7.65248351	         -5.58217594	         -4.83889401	         54.58874201	         -0.91704303	
        275.43000000	        -33.36984042	         -7.65248351	         -5.58217594	         -4.83889401	         54.58874201	         -0.91704303	
        275.44000000	        -27.88187210	         -7.65248351	         -5.58217594	         -4.83889401	         54.58874201	         -0.91704303	
        275.45000000	        -22.39390379	         -7.65248351	         -5.58217594	         -4.83889401	         54.58874201	         -0.91704303	
        275.46000000	        -16.90593547	         -7.65248351	         -5.58217594	         -4.83889401	         54.58874201	         -0.91704303	
        275.47000000	        -44.34577705	         -2.74924671	         -5.58217594	         -4.83889401	         54.58874201	         -0.91704303	
        275.48000000	        -38.85780873	         -2.74924671	         -5.58217594	         -4.83889401	         54.58874201	         -0.91704303	
        275.49000000	        -33.36984042	         -2.74924671	         -5.58217594	         -4.83889401	         54.58874201	         -0.91704303	
        275.50000000	        -27.88187210	         -2.74924671	         -5.58217594	         -4.83889401	         54.58874201	         -0.91704303	
        275.51000000	        -22.39390379	         -2.74924671	         -5.58217594	         -4.83889401	         54.58874201	         -0.91704303	
        275.52000000	        -16.90593547	         -2.74924671	         -5.58217594	         -4.83889401	         54.58874201	         -0.91704303	
        275.53000000	        -44.34577705	          2.15399008	         -5.58217594	         -4.83889401	         54.58874201	         -0.91704303	
        275.54000000	        -38.85780873	          2.15399008	         -5.58217594	         -4.83889401	         54.58874201	         -0.91704303	
